<svg width="780" height="360" viewBox="0 0 780 360" xmlns="http://www.w3.org/2000/svg">
  <rect x="0" y="0" width="780" height="360" rx="10" fill="#282828" stroke="#665c54" stroke-width="3" />
  
  <rect x="0" y="0" width="780" height="60" rx="10" fill="#3c3836" stroke="#665c54" stroke-width="2" />
  <text x="390" y="38" font-family="Courier New, monospace" font-size="22" fill="#fabd2f" font-weight="bold" text-anchor="middle">DIMENSIÓN 1: METADATOS DE IDENTIFICACIÓN</text>

  <g transform="translate(30, 120)">
    <text x="0" y="-12" font-family="Arial" font-size="14" fill="#a89984" font-weight="bold">DATOS DE REGISTRO</text>
    
    <g>
      <rect width="350" height="75" rx="5" fill="#32302f" stroke="#458588" stroke-width="1.5" />
      <text x="15" y="25" font-family="Arial" font-size="11" fill="#83a598" font-weight="bold">NOMBRE DEL DOCUMENTO</text>
      <text x="15" y="55" font-family="Courier New" font-size="16" fill="#ebdbb2">AGN_Tierras_v2781_exp11_04...</text>
      <path d="M310 18 H330 L340 28 V58 H310 Z M330 18 V28 H340" fill="none" stroke="#458588" stroke-width="2" />
    </g>
    
    <g transform="translate(0, 95)">
      <rect width="350" height="75" rx="5" fill="#32302f" stroke="#d3869b" stroke-width="1.5" />
      <text x="15" y="25" font-family="Arial" font-size="11" fill="#d3869b" font-weight="bold">REVISOR</text>
      <text x="15" y="55" font-family="Arial" font-size="16" fill="#ebdbb2">Nombre del revisor</text>
    </g>
  </g>

  <g transform="translate(400, 120)">
    <text x="0" y="-12" font-family="Arial" font-size="14" fill="#a89984" font-weight="bold">CONTEXTO PALEOGRÁFICO</text>
    
    <rect width="350" height="170" rx="5" fill="#32302f" stroke="#fabd2f" stroke-width="1.5" />
    <text x="20" y="30" font-family="Arial" font-size="12" fill="#fabd2f" font-weight="bold">TIPO DE CALIGRAFÍA (OPCIONES)</text>
    
    <g transform="translate(20, 55)">
      <g>
        <circle cx="11" cy="9" r="7" fill="none" stroke="#ebdbb2" stroke-width="1.5" />
        <circle cx="11" cy="9" r="5" fill="#b8bb26" />
        <text x="30" y="13" font-family="Arial" font-size="14" fill="#ebdbb2">Procesal</text>
      </g>
      
      <g transform="translate(0, 28)">
        <circle cx="11" cy="9" r="7" fill="none" stroke="#ebdbb2" stroke-width="1.5" />
        <text x="30" y="13" font-family="Arial" font-size="14" fill="#a89984">Encadenada</text>
      </g>
      
      <g transform="translate(0, 56)">
        <circle cx="11" cy="9" r="7" fill="none" stroke="#ebdbb2" stroke-width="1.5" />
        <text x="30" y="13" font-family="Arial" font-size="14" fill="#a89984" font-style="italic">Itálica Cursiva</text>
      </g>
      
      <g transform="translate(0, 84)">
        <circle cx="11" cy="9" r="7" fill="none" stroke="#ebdbb2" stroke-width="1.5" />
        <text x="30" y="13" font-family="Arial" font-size="14" fill="#a89984">Redonda</text>
      </g>
    </g>
  </g>
</svg>